# xmcd
# 
# Track frame offsets:
#     150
#     21503
#     42849
#     60352
#     78684
#     94146
#     109898
#     127713
#     147708
#     160278
#     180117
#     198740
#     216949
#     238267
#     260802
#     282825
#     299404
#     319141
#     336573
# 
# Disc length: 4726
# 
# Revision: 3
# Processed by: cddbd v1.5.2PL0 Copyright (c) Steve Scherf et al.
# Submitted via: fre:ac v1.0.31
# 
DISCID=2e127413
DTITLE=Presuntos Implicados - Selección Natural
DYEAR=2002
DGENRE=Pop
TTITLE0=Alma De Blues
TTITLE1=Como Hemos Cambiado
TTITLE2=Es Una Historia
TTITLE3=Gente
TTITLE4=Esperaré (Con Armando Manzanero)
TTITLE5=Esta Tarde Ví Llover
TTITLE6=Todas Las Flores
TTITLE7=Nunca Es Para Siempre
TTITLE8=Mi Pequeño Tesoro
TTITLE9=Las Palabras De Amor
TTITLE10=Llovió
TTITLE11=Sentir Su Calor
TTITLE12=Cada Historia (Con Ana Torroja)
TTITLE13=La Noche (Con Teo Cardala)
TTITLE14=En La Oscuridad
TTITLE15=Fallen (Con Randy Crawford)
TTITLE16=Cuando Quiero Sol
TTITLE17=Alma De Blues
TTITLE18=Como Hemos Cambiado
EXTD=
EXTT0=
EXTT1=
EXTT2=
EXTT3=
EXTT4=
EXTT5=
EXTT6=
EXTT7=
EXTT8=
EXTT9=
EXTT10=
EXTT11=
EXTT12=
EXTT13=
EXTT14=
EXTT15=
EXTT16=
EXTT17=
EXTT18=
PLAYORDER=
